# xmcd
#
# Track frame offsets:
#	150
#	21025
#	38841
#	50141
#	64976
#	79738
#	93233
#	110097
#	126624
#	136823
#	151424
#	170299
#
# Disc length: 2479 seconds
#
# Revision: 0
# Processed by: cddbd v1.5.2PL0 Copyright (c) Steve Scherf et al.
# Submitted via: audiograbber 1.83.01
#
DISCID=a309ad0c
DTITLE=Leland Harding III - Turn To Me
DYEAR=2009
DGENRE=
TTITLE0=Me and Misery
TTITLE1=I Miss You Tonight
TTITLE2=Average Joe
TTITLE3=The Fool In Love With You
TTITLE4=A Truer Love Than Mine
TTITLE5=Turn To Me
TTITLE6=T For Texas
TTITLE7=True Love
TTITLE8=Watermelon Time
TTITLE9=Sister Mary Martha
TTITLE10=A Cowboys Life
TTITLE11=Heartaches And Memories
EXTD=
EXTT0=
EXTT1=
EXTT2=
EXTT3=
EXTT4=
EXTT5=
EXTT6=
EXTT7=
EXTT8=
EXTT9=
EXTT10=
EXTT11=
PLAYORDER=
